<svg xmlns="http://www.w3.org/2000/svg" width="130" height="200" viewBox="0 0 130 200">
  <path id="homem-aranha" d="M103.436,200a1.278,1.278,0,0,1-.562-.132,1.912,1.912,0,0,1-.86-2.2c.056-.211,5.575-21.216,7.165-31.337,1.7-10.817,2.978-21.648,1.393-44.717l-1.626-23.658a2.12,2.12,0,0,1,.144-.928,3.439,3.439,0,0,0-.457-3.173c-.613-.792-1.329-1.864-2.088-3-1.544-2.31-3.467-5.185-5.074-6.488l-2-1.621a7.972,7.972,0,0,0,.535,1.816A14.5,14.5,0,0,0,102.175,88a1.991,1.991,0,0,1,.492,1.393A119.309,119.309,0,0,1,99.7,111.9c-2.528,9.86-6.282,21.861-6.319,21.981a1.507,1.507,0,0,1-1.509,1.156,1.612,1.612,0,0,1-1.347-1.413l-.2-1.122-.595.072a1.212,1.212,0,0,1-.3,0l-.594-.072-.2,1.122a1.613,1.613,0,0,1-1.347,1.413,1.5,1.5,0,0,1-1.509-1.156c-.037-.12-3.791-12.122-6.319-21.981A119.384,119.384,0,0,1,76.5,89.391a1.973,1.973,0,0,1,.5-1.4,14.559,14.559,0,0,0,2.162-3.431,7.945,7.945,0,0,0,.535-1.816l-2,1.621c-1.607,1.3-3.53,4.178-5.074,6.488-.759,1.134-1.475,2.206-2.088,3a3.443,3.443,0,0,0-.449,3.194,2.234,2.234,0,0,1,.137.908L68.6,121.614c-1.585,23.069-.307,33.9,1.393,44.717,1.59,10.121,7.109,31.126,7.165,31.337a1.912,1.912,0,0,1-.86,2.2,1.4,1.4,0,0,1-1.9-.852c-.332-.79-8.161-19.483-10.785-31.911-2.828-13.39-3.8-22.515-4-37.551-.211-15.7,2.035-40.591,2.058-40.84a1.623,1.623,0,0,1,1.483-1.6,6.27,6.27,0,0,0,3.854-2.047c1.309-1.3,4.1-4.254,6.4-6.707-2.917.541-5.811,1.257-6.783,1.977-1.3.966-5.347,5.9-8.6,9.866-2.289,2.793-4.45,5.431-5.687,6.741-1.487,1.576-5.311,5-9.009,8.3-3.539,3.165-7.944,7.105-8.512,7.883a.714.714,0,0,0-.116.211h0c.018,0,.129.138.13.139a1.994,1.994,0,0,1,.565,1.959c-.008.034-.835,3.458-1.585,8.865a77.115,77.115,0,0,0-.413,19.686c.823,8.716,8.486,38.207,8.563,38.5a1.9,1.9,0,0,1-.91,2.215,1.422,1.422,0,0,1-1.888-.981c-.046-.131-4.621-13.065-6.1-16.774-1.592-4-8.143-26.8-8.437-37.571-.282-10.339.841-24.995.889-25.614a1.777,1.777,0,0,1,.955-1.507,1.311,1.311,0,0,1,1.549.364,6.037,6.037,0,0,0,2.176,1.683c.143.01.264.017.373.017.274,0,.3,0,1.4-.653.308-.184.678-.4,1.135-.666,2.81-1.621,6.673-4.805,12.158-10.022,6.171-5.869,16.6-20.58,16.7-20.728a1.42,1.42,0,0,1,1.069-.63s3.053-.169,6.1-.394a37.863,37.863,0,0,0,5.2-.956,21.9,21.9,0,0,0-4.267-2.524,5.576,5.576,0,0,0-1.855-.268c-2.3,0-5.716.874-10.75,2.75-6.093,2.271-15.206,6.61-15.3,6.653a1.29,1.29,0,0,1-1.457-.242l-8.2-7.518a1.945,1.945,0,0,1-.585-1.5,170.861,170.861,0,0,1,4.674-30.6c4.146-17.3,12.58-35.473,12.665-35.655a1.378,1.378,0,0,1,1.93-.749,1.941,1.941,0,0,1,.769,2.252S50.7,6.94,49.527,10.727c-1.353,4.346-7.168,25.992-7.876,34.488-.693,8.319-.4,18.459.057,21.184,1.418-.082,4.512-1.081,8.725-2.438,1.162-.374,2.418-.78,3.768-1.208,8.381-2.655,15.867-5.085,15.869-5.086A1.306,1.306,0,0,1,71.4,58s1.759,1.706,3.763,3.635l-1.656-3.4A65.944,65.944,0,0,0,65.966,54.6a15.133,15.133,0,0,0-5.536-.92c-.454,0-.892.011-1.312.021s-.807.019-1.189.019c-1.05,0-1.312,1.362-1.322,1.421a1.743,1.743,0,0,1-.888,1.27,1.279,1.279,0,0,1-1.376-.15l-6.219-4.805a1.8,1.8,0,0,1-.621-.989c-.1-.406-2.443-10.106,1.85-25.56C53.6,9.622,60.274.931,60.556.568A1.318,1.318,0,0,1,62.5.318a2.014,2.014,0,0,1,.489,2.265S59.312,11.511,57.239,16.6C55.286,21.39,54.8,27.231,54.611,35.7c-.119,5.391.621,8.011,1.036,9.045a78.411,78.411,0,0,1,8.261.836c5.368.82,13.711,5.726,14.063,5.934a1.785,1.785,0,0,1,.807,1.273h0a17.675,17.675,0,0,0,2.16,4.96q.362.62.663,1.106a4.219,4.219,0,0,1,.335-.847c.222-.4.81-1.456,4.987-2.512a1.46,1.46,0,0,1,1.693,1.087,1.987,1.987,0,0,1-.6,2.188,6.7,6.7,0,0,0-1.456,1.658,1.241,1.241,0,0,1,.813.038,4.562,4.562,0,0,1,1.777,1.644c0,.039-.039.051-.1.08a1.257,1.257,0,0,1,.968-.044,4.517,4.517,0,0,1,1.783-1.68,1.253,1.253,0,0,1,.809-.046,6.706,6.706,0,0,0-1.457-1.656,2,2,0,0,1-.589-2.189,1.455,1.455,0,0,1,1.687-1.081c4.177,1.055,4.764,2.113,4.986,2.511a4.2,4.2,0,0,1,.336.848c.2-.325.422-.692.663-1.106a17.58,17.58,0,0,0,2.164-4.983,1.824,1.824,0,0,1,.8-1.251c.353-.209,8.695-5.114,14.063-5.934a78.546,78.546,0,0,1,8.269-.836c.4-.995,1.147-3.614,1.027-9.044-.186-8.468-.675-14.309-2.628-19.1-2.072-5.086-5.746-14.013-5.746-14.013a2.014,2.014,0,0,1,.489-2.265,1.317,1.317,0,0,1,1.939.251c.282.363,6.962,9.054,11.209,24.343,4.293,15.455,1.952,25.155,1.85,25.56a1.793,1.793,0,0,1-.621.989l-6.219,4.805a1.281,1.281,0,0,1-1.377.15,1.746,1.746,0,0,1-.889-1.27c-.046-.219-.343-1.421-1.323-1.421-.383,0-.778-.009-1.189-.019s-.858-.021-1.312-.021a15.133,15.133,0,0,0-5.536.92,65.731,65.731,0,0,0-7.54,3.634l-1.656,3.4c2-1.928,3.762-3.634,3.763-3.634a1.307,1.307,0,0,1,1.327-.336s7.488,2.43,15.87,5.086c1.35.428,2.608.833,3.769,1.208,4.213,1.358,7.306,2.356,8.725,2.438.454-2.725.751-12.865.057-21.184-.708-8.5-6.524-30.141-7.876-34.488-1.177-3.786-2.449-7.855-2.449-7.855a1.941,1.941,0,0,1,.769-2.252,1.378,1.378,0,0,1,1.93.749c.085.182,8.519,18.358,12.665,35.655a170.94,170.94,0,0,1,4.674,30.6,1.945,1.945,0,0,1-.585,1.5l-8.2,7.518a1.292,1.292,0,0,1-1.457.242c-.092-.043-9.206-4.383-15.3-6.653-5.035-1.876-8.45-2.75-10.75-2.75a5.6,5.6,0,0,0-1.855.268,21.886,21.886,0,0,0-4.267,2.524,37.6,37.6,0,0,0,5.2.956c3.051.225,6.1.394,6.1.394a1.42,1.42,0,0,1,1.069.63c.1.148,10.532,14.859,16.7,20.728,5.485,5.216,9.348,8.4,12.158,10.022.456.263.826.483,1.134.666,1.1.654,1.128.654,1.4.654.109,0,.231-.006.373-.017a6.089,6.089,0,0,0,2.175-1.683,1.311,1.311,0,0,1,1.549-.364,1.778,1.778,0,0,1,.955,1.508c.048.619,1.171,15.275.889,25.614-.295,10.775-6.844,33.571-8.437,37.571-1.477,3.709-6.051,16.643-6.1,16.774a1.422,1.422,0,0,1-1.888.981,1.9,1.9,0,0,1-.91-2.215c.078-.3,7.741-29.787,8.564-38.5a77.116,77.116,0,0,0-.413-19.686c-.751-5.407-1.578-8.831-1.585-8.865a1.994,1.994,0,0,1,.565-1.959.828.828,0,0,0,.122-.184c-.013-.012-.043-.074-.109-.167-.566-.777-4.971-4.717-8.51-7.881-3.7-3.308-7.523-6.727-9.009-8.3-1.236-1.311-3.4-3.95-5.689-6.743-3.248-3.964-7.291-8.9-8.595-9.863-.972-.721-3.866-1.436-6.783-1.977,2.3,2.453,5.089,5.405,6.4,6.707a6.243,6.243,0,0,0,3.871,2.047,1.647,1.647,0,0,1,1.467,1.6c.022.25,2.27,25.138,2.058,40.84-.2,15.037-1.175,24.161-4,37.551-2.625,12.429-10.454,31.121-10.786,31.911A1.492,1.492,0,0,1,103.436,200ZM64.517,90.484c-.465,5.436-2.1,25.648-1.92,39.01.221,16.438,1.491,25.267,3.912,36.73.381,1.806.884,3.765,1.462,5.794-.365-1.827-.677-3.531-.912-5.022-1.676-10.67-3.048-22.192-1.434-45.675l1.6-23.228a7.508,7.508,0,0,1,1.13-6.674c.54-.7,1.224-1.72,1.947-2.8,1.758-2.629,3.75-5.608,5.731-7.215,2.613-2.119,4.591-3.728,4.591-3.729a1.284,1.284,0,0,1,1.507-.119,1.842,1.842,0,0,1,.821,1.521,18.367,18.367,0,0,1-1.174,7.22,19.216,19.216,0,0,1-2.258,3.739,114.843,114.843,0,0,0,2.8,20.817c1.617,6.308,3.746,13.516,5.058,17.852a1.246,1.246,0,0,1,.558-.01l1.65.3.492-.06,1.159-.243a1.247,1.247,0,0,1,.558.01c1.312-4.336,3.44-11.543,5.058-17.852a114.776,114.776,0,0,0,2.8-20.817A19.178,19.178,0,0,1,97.4,86.293a18.367,18.367,0,0,1-1.174-7.22,1.842,1.842,0,0,1,.821-1.521,1.286,1.286,0,0,1,1.507.119s1.978,1.61,4.591,3.729c1.982,1.607,3.974,4.586,5.731,7.215.724,1.082,1.407,2.1,1.947,2.8a7.508,7.508,0,0,1,1.13,6.674l1.6,23.228c1.614,23.484.242,35.006-1.434,45.675-.234,1.49-.547,3.194-.912,5.021.579-2.028,1.081-3.988,1.462-5.793,2.421-11.464,3.691-20.292,3.912-36.73.18-13.362-1.456-33.573-1.92-39.01a9.912,9.912,0,0,1-4.4-2.66c-2.468-2.454-9.77-10.313-10.079-10.646a2.045,2.045,0,0,1-.369-2.056,1.476,1.476,0,0,1,1.515-1.057c1.685.205,10.224,1.325,12.789,3.226,1.5,1.11,4.6,4.839,9.154,10.4,2.252,2.748,4.379,5.343,5.537,6.571,1.394,1.477,5.167,4.852,8.816,8.115,5.614,5.021,8.333,7.49,9,8.434a4.233,4.233,0,0,1,.8,2.917,4.159,4.159,0,0,1-.566,1.7c.31,1.431.891,4.333,1.44,8.289a81.277,81.277,0,0,1,.435,20.677c-.125,1.323-.392,3.07-.758,5.092,1.806-7.331,3.446-15.376,3.578-20.22.2-7.3-.34-17.1-.66-22.038a3.956,3.956,0,0,1-1.757.656c-.207.014-.383.022-.541.022a4.816,4.816,0,0,1-2.726-1.026c-.3-.178-.66-.392-1.1-.648-3.014-1.738-7.056-5.057-12.718-10.442-5.753-5.47-14.643-17.744-16.7-20.624-1.062-.062-3.281-.2-5.5-.36A63.614,63.614,0,0,1,100.6,72.84a1.69,1.69,0,0,1-1.122-1.42,1.963,1.963,0,0,1,.63-1.8c.213-.174,5.264-4.266,8.137-5.294,2.789-1,6.824-.309,14.344,2.493,5.141,1.917,12.356,5.26,14.727,6.374l6.9-6.324A175.964,175.964,0,0,0,139.7,38.013q-.466-1.942-1-3.891a95.09,95.09,0,0,1,1.8,10.738c.425,5.1.977,22.116-.854,24.312a2.5,2.5,0,0,1-1.994.815c-1.718,0-4.714-.966-9.679-2.567q-1.737-.56-3.757-1.2c-6.831-2.164-13.068-4.178-15.151-4.852-.842.816-2.466,2.385-4.1,3.954-2.669,2.562-4.653,2.7-4.871,2.71a1.441,1.441,0,0,1-1.327-.876,2.1,2.1,0,0,1,0-1.816l4.57-9.384a1.63,1.63,0,0,1,.648-.713,70.668,70.668,0,0,1,8.348-4.049,17.759,17.759,0,0,1,6.421-1.081c.475,0,.932.011,1.372.021.389.009.766.019,1.13.019a3.935,3.935,0,0,1,3.37,2.032l4.32-3.337c.389-2.217,1.423-10.434-1.842-22.428.249,2.737.375,5.767.451,9.2.2,8.91-1.742,11.7-2.132,12.168a1.38,1.38,0,0,1-1.036.525,72.2,72.2,0,0,0-8.735.833c-4.112.628-10.57,4.147-12.535,5.258a24.261,24.261,0,0,1-2.425,5.409c-1.5,2.58-2.686,4.171-3.423,4.6a1.274,1.274,0,0,1-1.406-.067,1.532,1.532,0,0,1-.255-.226,2.3,2.3,0,0,1-1.864.981,2.51,2.51,0,0,1-1.511-.554,2.781,2.781,0,0,1-2.207,1.2,2.449,2.449,0,0,0-.855,0,2.782,2.782,0,0,1-2.207-1.2,2.513,2.513,0,0,1-1.512.554,2.3,2.3,0,0,1-1.864-.981,1.526,1.526,0,0,1-.254.226,1.279,1.279,0,0,1-1.406.067c-.738-.429-1.922-2.02-3.424-4.6a24.208,24.208,0,0,1-2.425-5.409c-1.965-1.112-8.423-4.63-12.535-5.258A72.224,72.224,0,0,0,54.8,48.3a1.384,1.384,0,0,1-1.036-.525c-.39-.468-2.328-3.258-2.132-12.168.075-3.429.2-6.459.451-9.194-3.263,11.987-2.232,20.2-1.842,22.428l4.319,3.336a3.934,3.934,0,0,1,3.37-2.032c.363,0,.74-.009,1.13-.019.44-.011.9-.021,1.372-.021a17.754,17.754,0,0,1,6.421,1.081,70.707,70.707,0,0,1,8.348,4.05,1.626,1.626,0,0,1,.648.713l4.57,9.384a2.1,2.1,0,0,1-.005,1.816,1.448,1.448,0,0,1-1.327.876c-.218-.007-2.2-.148-4.871-2.71-1.635-1.569-3.258-3.139-4.1-3.954-2.084.674-8.32,2.688-15.151,4.852q-2.019.641-3.756,1.2c-4.964,1.6-7.961,2.567-9.679,2.567a2.5,2.5,0,0,1-1.994-.815c-1.83-2.2-1.279-19.208-.854-24.312a95.068,95.068,0,0,1,1.8-10.736c-.354,1.3-.689,2.6-1,3.89a175.531,175.531,0,0,0-4.512,28.851l6.9,6.324c2.371-1.114,9.586-4.457,14.727-6.374,7.522-2.8,11.557-3.49,14.343-2.493,2.873,1.028,7.925,5.12,8.138,5.294a1.963,1.963,0,0,1,.63,1.8,1.69,1.69,0,0,1-1.122,1.42,63.513,63.513,0,0,1-9.253,1.967c-2.22.164-4.439.3-5.5.36-2.06,2.88-10.95,15.154-16.7,20.624-5.663,5.385-9.7,8.7-12.718,10.443-.444.256-.8.469-1.1.648a4.816,4.816,0,0,1-2.725,1.025c-.158,0-.334-.008-.541-.022a3.952,3.952,0,0,1-1.757-.656c-.32,4.941-.86,14.738-.66,22.038.132,4.844,1.773,12.889,3.579,20.221-.366-2.023-.633-3.77-.758-5.094a81.275,81.275,0,0,1,.435-20.677c.549-3.956,1.13-6.858,1.44-8.289a4.148,4.148,0,0,1-.566-1.7,4.229,4.229,0,0,1,.8-2.917c.668-.944,3.387-3.412,9-8.433,3.65-3.264,7.423-6.639,8.816-8.116,1.157-1.227,3.283-3.822,5.534-6.568,4.558-5.563,7.658-9.291,9.157-10.4,2.565-1.9,11.1-3.021,12.789-3.226a1.475,1.475,0,0,1,1.515,1.057A2.045,2.045,0,0,1,79,77.18c-.31.333-7.611,8.192-10.079,10.646A9.951,9.951,0,0,1,64.517,90.484Z" transform="translate(-24.587 0.001)" fill="#b21212"/>
</svg>
