<svg xmlns="http://www.w3.org/2000/svg" width="16.987" height="12.99" viewBox="0 0 16.987 12.99">
  <path id="solid_image" data-name="solid image" d="M14.488,75.99H1.5a1.5,1.5,0,0,1-1.5-1.5V65.5A1.5,1.5,0,0,1,1.5,64H14.488a1.5,1.5,0,0,1,1.5,1.5v8.992A1.5,1.5,0,0,1,14.488,75.99ZM3.5,65.749A1.749,1.749,0,1,0,5.246,67.5,1.749,1.749,0,0,0,3.5,65.749ZM2,73.992h11.99v-3.5l-2.733-2.733a.375.375,0,0,0-.53,0L6.495,71.993,4.761,70.26a.375.375,0,0,0-.53,0L2,72.493Z" transform="translate(0.5 -63.5)" fill="none" stroke="#667580" stroke-width="1"/>
</svg>
