<svg xmlns="http://www.w3.org/2000/svg" width="17" height="17.003" viewBox="0 0 17 17.003">
  <path id="solid_baby-carriage" data-name="solid baby-carriage" d="M4.525.517A1.173,1.173,0,0,0,2.837.223,7.363,7.363,0,0,0,0,5.986H8ZM15.5,2.986H14a2,2,0,0,0-2,2v2H0A5.541,5.541,0,0,0,1.884,11.07,2.5,2.5,0,1,0,5,13.485a2.525,2.525,0,0,0-.137-.787,8.089,8.089,0,0,0,4.275,0A2.438,2.438,0,0,0,9,13.485a2.5,2.5,0,1,0,3.116-2.416A5.541,5.541,0,0,0,14,6.986v-2h1.5a.5.5,0,0,0,.5-.5v-1A.5.5,0,0,0,15.5,2.986Zm-13,11.5a1,1,0,1,1,1-1A1,1,0,0,1,2.5,14.485Zm10-1a1,1,0,1,1-1-1A1,1,0,0,1,12.5,13.485Z" transform="translate(0.5 0.518)" fill="none" stroke="#667580" stroke-width="1"/>
</svg>
