<svg xmlns="http://www.w3.org/2000/svg" width="16.498" height="16.498" viewBox="0 0 16.498 16.498">
  <path id="solid_sync-alt" data-name="solid sync-alt" d="M19.334,11.915a5.251,5.251,0,0,0-8.676,2.549.376.376,0,0,1-.364.286H8.5a.375.375,0,0,1-.369-.443A7.75,7.75,0,0,1,21.1,10.146L22.218,9.03a.75.75,0,0,1,1.28.53v4.189a.75.75,0,0,1-.75.75H18.56a.75.75,0,0,1-.53-1.28ZM8.75,17h4.189a.75.75,0,0,1,.53,1.28l-1.3,1.3a5.251,5.251,0,0,0,8.676-2.549.376.376,0,0,1,.364-.286H23a.375.375,0,0,1,.369.443A7.75,7.75,0,0,1,10.4,21.352L9.28,22.468A.75.75,0,0,1,8,21.938V17.749A.75.75,0,0,1,8.75,17Z" transform="translate(-7.5 -7.5)" fill="none" stroke="#667580" stroke-width="1"/>
</svg>
