<svg xmlns="http://www.w3.org/2000/svg" width="200" height="202.491" viewBox="0 0 200 202.491">
  <g id="Grupo_1" data-name="Grupo 1" transform="translate(280 -630)">
    <rect id="Retângulo_1" data-name="Retângulo 1" width="200" height="200" transform="translate(-280 630)" fill="#fff"/>
    <g id="avatar" transform="translate(-281.898 638.121)">
      <path id="Caminho_1" data-name="Caminho 1" d="M195.938,115.279a24.294,24.294,0,0,0-16.846-19.012L129.521,85.22v.117H74.4V85.22L24.829,96.267A24.294,24.294,0,0,0,7.983,115.279L7,121.328a234.761,234.761,0,0,0,94.977,20.178h0a234.761,234.761,0,0,0,94.977-20.178Z" transform="translate(0 50.863)" fill="#656e70"/>
      <path id="Caminho_2" data-name="Caminho 2" d="M160.513,115.279a24.294,24.294,0,0,0-16.846-19.012L94.1,85.22v.117H60.17l52.721,51.454a235.045,235.045,0,0,0,48.638-15.463Z" transform="translate(35.425 50.863)" fill="#5e6668"/>
      <path id="Caminho_3" data-name="Caminho 3" d="M24.023,96.254A24.211,24.211,0,0,0,8.21,111.5a9.514,9.514,0,0,0,10.514-2.733,11.364,11.364,0,0,1,5.3-3.333l43.04-11.664a8.831,8.831,0,0,0,6.532-8.531Z" transform="translate(0.806 50.877)" fill="#787f80"/>
      <path id="Caminho_4" data-name="Caminho 4" d="M134.839,124.259V68.589c0-17.213-1.366-24.444-5.215-57.669a2.166,2.166,0,0,0-4.149-.6l-6.032,14.047S110.228,18.2,94.848,18.2s-24.611,6.165-24.611,6.165l-6.1-14.047a2.183,2.183,0,0,0-4.166.6c-3.849,33.325-5.215,40.474-5.2,57.669v55.67L17.7,147.054l9.181-.966a50.488,50.488,0,0,1,29.393,5.832c36.225,19.612,40.724,19.6,77.231,0a50.6,50.6,0,0,1,29.226-5.782c2.066.217,4.882.533,9.231.966Z" transform="translate(7.129 0.077)" fill="#333"/>
      <path id="Caminho_5" data-name="Caminho 5" d="M133.1,83l45.989,14.746a24.294,24.294,0,0,1,16.846,19.012l.983,6.049a234.76,234.76,0,0,1-94.944,20.179h0A234.761,234.761,0,0,1,7,122.807l.983-6.049A24.294,24.294,0,0,1,24.829,97.746L71.984,83" transform="translate(0 49.384)" fill="none" stroke="#333" stroke-linejoin="round" stroke-width="4"/>
      <path id="Caminho_6" data-name="Caminho 6" d="M114.471,124.259V68.589c0-17.213-1.366-24.444-5.215-57.669a2.166,2.166,0,0,0-4.149-.6L99.074,24.367S89.86,18.2,74.48,18.2H73.4A201,201,0,0,0,61.15,90.134c0,2.783,0,5.765,0,8.848H48.27v16.663l27.31,27.293a24.444,24.444,0,0,0,30.559,3.2l20.895-14.1Zm-39.99-19.3a2.816,2.816,0,0,1-1.666-.55L65.4,98.982H64.383l8.848-17.7a.617.617,0,0,1,1.166.267Z" transform="translate(27.497 0.077)" fill="#222"/>
      <path id="Caminho_7" data-name="Caminho 7" d="M65.918,61.389H52.588a3.333,3.333,0,0,1-3-1.866l-3.333-6.665A3.33,3.33,0,0,1,50.5,48.309l16.663,6.665a3.333,3.333,0,0,1-1.25,6.415Z" transform="translate(25.928 26.106)" fill="#777"/>
      <path id="Caminho_8" data-name="Caminho 8" d="M84.656,61.385H71.326a3.333,3.333,0,0,1-1.25-6.415L86.739,48.3a3.333,3.333,0,0,1,4.232,4.549l-3.333,6.665A3.333,3.333,0,0,1,84.656,61.385Z" transform="translate(40.649 26.11)" fill="#777"/>
      <path id="Caminho_9" data-name="Caminho 9" d="M84.907,63l-7.348,5.432a2.783,2.783,0,0,1-3.333,0L66.912,63H46v6.4c0,7.715,9.8,19.562,19.812,25.411,2.7,1.666,7.182,1.516,10.181,1.516s7.465,0,10.164-1.516c10-5.849,19.829-17.7,19.829-25.411V63Z" transform="translate(25.984 36.059)" fill="#f5d4cb"/>
      <path id="Caminho_10" data-name="Caminho 10" d="M70.9,68.432a2.783,2.783,0,0,1-3.333,0L60.249,63H56v4.482c0,7.632,0,16.663.35,25.527.933.633,1.85,1.25,2.783,1.8,2.7,1.666,7.182,1.516,10.181,1.516s7.465,0,10.164-1.516c10-5.849,19.829-17.7,19.829-25.411V63H78.245Z" transform="translate(32.647 36.059)" fill="#f4cfc5"/>
      <path id="Caminho_11" data-name="Caminho 11" d="M77.559,68.432a2.783,2.783,0,0,1-3.333,0L66.912,63H46v3.333H69.028l4.666,3.433a6.665,6.665,0,0,0,8.065.2l5-3.632h15.9V69.4c0,6.115-8.931,17.079-18.329,22.528-1.833,1.066-5.749,1.033-8.165,1.066h-.167a3.183,3.183,0,0,0-3.166,3.333h3.166c3,0,7.465,0,10.164-1.516,10-5.849,19.829-17.7,19.829-25.411V63H84.907Z" transform="translate(25.984 36.059)" fill="#f0c2b6"/>
      <path id="Caminho_12" data-name="Caminho 12" d="M55.95,73.666,63.931,71H74.6l8,2.666" transform="translate(32.614 41.389)" fill="none" stroke="#c6a7a2" stroke-linecap="round" stroke-miterlimit="10" stroke-width="2"/>
      <line id="Linha_1" data-name="Linha 1" x2="13.33" transform="translate(95.229 119.054)" fill="none" stroke="#c6a7a2" stroke-linecap="round" stroke-miterlimit="10" stroke-width="2"/>
      <path id="Caminho_13" data-name="Caminho 13" d="M85.608,10.4,79.577,24.443a21.31,21.31,0,0,0-2.166-1.216,17.246,17.246,0,0,0,3.7,10.847,44.723,44.723,0,0,1,9.3,28.426V94.643a4.416,4.416,0,0,0,4.416,4.416h.233V68.666c0-17.213-1.366-24.444-5.215-57.669a2.166,2.166,0,0,0-4.232-.6Z" transform="translate(46.911 0)" fill="#333"/>
    </g>
  </g>
</svg>
